<svg width="113" height="34" viewBox="0 0 113 34" fill="none" xmlns="http://www.w3.org/2000/svg">
<path d="M109.912 12.2953C110.025 12.2016 110.081 12.0703 110.081 11.9016C110.081 11.7328 110.025 11.6016 109.912 11.5078C109.8 11.4141 109.65 11.3578 109.444 11.3578H108.806V12.8766H109.144V12.4078H109.444C109.462 12.4078 109.481 12.4078 109.481 12.4078L109.781 12.8766H110.119L109.781 12.3516C109.837 12.3516 109.875 12.3328 109.912 12.2953ZM109.687 12.1078C109.631 12.1641 109.537 12.1828 109.444 12.1828H109.162V11.6391H109.444C109.556 11.6391 109.631 11.6578 109.687 11.7141C109.744 11.7516 109.781 11.8266 109.781 11.9203C109.762 11.9953 109.744 12.0516 109.687 12.1078ZM109.462 10.6453C108.637 10.6453 107.962 11.3203 107.962 12.1453C107.962 12.9703 108.637 13.6453 109.462 13.6453C110.287 13.6453 110.962 12.9703 110.962 12.1453C110.962 11.3203 110.287 10.6453 109.462 10.6453ZM109.462 13.4016C108.769 13.4016 108.206 12.8391 108.206 12.1453C108.206 11.4516 108.769 10.8891 109.462 10.8891C110.156 10.8891 110.719 11.4516 110.719 12.1453C110.737 12.8391 110.175 13.4016 109.462 13.4016ZM36.8625 8.03906L30.6562 22.3453H33.7125L35.0625 19.1016H42.525L43.875 22.3453H47.025L40.7625 8.03906H36.8625ZM36.0937 16.6641L38.7937 10.1953L41.5125 16.6641H36.0937ZM100.687 20.0766H106.781V22.3641H97.0312L97.0687 20.1328L102.712 14.5078H97.3687V12.2203H106.556L106.575 14.4328L100.687 20.0766ZM55.8937 14.1141C55.0875 12.8578 53.6625 12.0141 51.9187 12.0141C48.7312 12.0141 47.0812 14.2266 47.0812 16.9266C47.0812 19.6078 48.7125 21.8203 51.9187 21.8203C53.6812 21.8203 55.0875 20.9578 55.8937 19.7203V21.4266C55.8937 22.6078 55.3312 23.5078 53.9812 23.5078H48.6V25.7953H54.3188C56.8687 25.7953 58.4625 23.7891 58.4625 21.4266V12.2203H55.8937V14.1141ZM52.8375 19.6266C50.7937 19.6266 49.8188 18.5016 49.8188 16.9078C49.8188 15.3141 50.7937 14.1703 52.8375 14.1891C54.9187 14.1703 55.9875 15.2953 55.9875 16.9078C55.9875 18.5016 54.9187 19.6266 52.8375 19.6266ZM65.6625 11.9953C61.95 11.9953 60 14.3578 60 17.2828C60 20.4141 62.0437 22.5516 65.7187 22.5516C68.1187 22.5516 69.9562 21.4828 70.875 19.8328L68.325 19.1016C67.6687 19.9641 66.8438 20.3016 65.6625 20.3016C63.8812 20.3016 63.0375 19.4016 62.8125 18.0516H71.2312C71.2687 17.8078 71.2687 17.5828 71.2687 17.3391C71.2687 14.4328 69.3375 11.9953 65.6625 11.9953ZM65.6625 14.2078C67.3687 14.2078 68.2875 15.1641 68.4 16.3641H62.8312C63.0562 15.1828 63.825 14.2078 65.6625 14.2078ZM93.0562 12.2203H96.075L92.025 22.0078C91.1625 24.1078 90.2812 25.7766 87.9562 25.7766H84.8437V23.4891H87.4125C88.3875 23.4891 88.7625 23.0766 89.1 22.3078L83.9812 12.2203H87.0375L90.4687 19.5141L93.0562 12.2203ZM83.4562 16.5141V22.3641H80.8687V16.9266C80.8687 15.4078 79.9125 14.3953 78.3 14.3953C76.725 14.3953 75.5625 15.5391 75.4312 16.9641V22.3641H72.8437V12.2203H75.4312V14.4703C76.1062 13.1578 77.5687 11.9953 79.4812 11.9953C82.1625 11.9953 83.4562 13.7203 83.4562 16.5141Z" fill="#151516"/>
<path d="M2.21094 19.1383C2.21094 21.557 3.27969 22.7008 5.21094 24.0508L10.7984 27.8758L14.2109 25.532L10.2547 22.8133L11.0047 20.807H17.4734L18.2234 22.7758L21.1859 20.7508L16.4234 9.83828L22.9484 14.282C24.1109 15.1633 24.9922 15.9508 25.5547 16.9258C25.8734 16.382 26.0984 15.7633 26.2297 14.9945V14.6758C26.2297 12.257 25.1609 11.1133 23.2297 9.76328L17.6609 5.95703L11.9984 9.83828L7.29219 20.7695L5.49219 19.532C4.32969 18.6508 3.44844 17.8633 2.88594 16.8883C2.56719 17.432 2.34219 18.0508 2.21094 18.8195V19.1383ZM14.2297 12.2758L16.4797 18.182H11.9984L14.2297 12.2758Z" fill="#00BFE3"/>
<path d="M14.2141 3.59375L5.21406 9.8C3.28281 11.15 2.19531 12.275 2.19531 14.675V18.8187C2.58906 16.6437 3.65781 15.6687 5.47656 14.2812L17.6453 5.95625L14.2141 3.59375Z" fill="#68FFFF"/>
<path d="M22.95 19.5297L10.7812 27.8547L14.2125 30.2172L23.2313 24.0109C25.1625 22.6609 26.2312 21.5547 26.2312 19.1359V14.9922C25.8375 17.1672 24.7688 18.1422 22.95 19.5297Z" fill="#68FFFF"/>
</svg>
